<svg xmlns="http://www.w3.org/2000/svg" version="1.1" xmlns:xlink="http://www.w3.org/1999/xlink" xmlns:svgjs="http://svgjs.dev/svgjs" width="1000" height="431" viewBox="0 0 1000 431"><g transform="matrix(1,0,0,1,-0.6060606060606801,-0.5701791173606523)"><svg viewBox="0 0 396 171" data-background-color="#ffffff" preserveAspectRatio="xMidYMid meet" height="431" width="1000" xmlns="http://www.w3.org/2000/svg" xmlns:xlink="http://www.w3.org/1999/xlink"><g id="tight-bounds" transform="matrix(1,0,0,1,0.24000000000003752,0.22621955700387275)"><svg viewBox="0 0 395.5199999999999 170.54756088599225" height="170.54756088599225" width="395.5199999999999"><g><svg viewBox="0 0 397.4975999999999 171.4002986904222" height="170.54756088599225" width="395.5199999999999"><g><rect width="397.4975999999999" height="5.249764769480235" x="0" y="94.19406931539108" fill="#000000" opacity="1" stroke-width="0" stroke="transparent" fill-opacity="1" class="rect-qz-0" data-fill-palette-color="primary" rx="1%" id="qz-0" data-palette-color="#6230a3"></rect></g><g transform="matrix(1,0,0,1,0.9887999999999693,113.18667379555255)"><svg viewBox="0 0 395.52 58.21362489486963" height="58.21362489486963" width="395.52"><g id="textblocktransform"><svg viewBox="0 0 395.52 58.21362489486963" height="58.21362489486963" width="395.52" id="textblock"><g><svg viewBox="0 0 395.52 58.21362489486963" height="58.21362489486963" width="395.52"><g transform="matrix(1,0,0,1,0,0)"><svg width="395.52" viewBox="0.98 -37.35 290.26 42.72" height="58.21362489486963" data-palette-color="#6230a3"><g class="wordmark-text-0" data-fill-palette-color="primary" id="text-0"><path d="M31.01-14.5L31.01-14.5Q31.01-13.18 31.01-11.84 31.01-10.5 30.91-9.18L30.91-9.18 20.02-8.5Q20.21-11.04 20.34-13.53 20.46-16.02 20.46-18.6L20.46-18.6Q20.46-18.85 20.46-19.43 20.46-20.02 20.41-20.68 20.36-21.34 20.31-21.92 20.26-22.51 20.21-22.75L20.21-22.75Q19.97-23.44 19.7-23.93 19.43-24.41 19.07-24.71 18.7-25 18.16-25.12 17.63-25.24 16.85-25.24L16.85-25.24Q16.26-25.24 15.36-25.15 14.45-25.05 13.53-24.85 12.6-24.66 11.77-24.37 10.94-24.07 10.6-23.68L10.6-23.68 10.5-9.28Q10.4-9.47 9.94-9.47 9.47-9.47 9.28-9.47L9.28-9.47Q7.81-9.47 6.25-9.35 4.69-9.23 3.22-9.03L3.22-9.03Q2.59-14.79 2.1-20.51 1.61-26.22 0.98-31.98L0.98-31.98Q1.95-32.03 2.93-32.06 3.91-32.08 4.88-32.08L4.88-32.08Q6.15-32.08 7.45-32.01 8.74-31.93 10.01-31.88L10.01-31.88 10.35-28.13Q11.72-30.37 14.06-31.88 16.41-33.4 19.09-33.4L19.09-33.4Q20.46-33.4 21.92-33.25 23.39-33.11 24.73-32.67 26.07-32.23 27.27-31.45 28.47-30.66 29.3-29.44L29.3-29.44Q29.69-28.86 29.96-27.71 30.22-26.56 30.42-25.12 30.62-23.68 30.74-22.07 30.86-20.46 30.91-18.99 30.96-17.53 30.98-16.33 31.01-15.14 31.01-14.5ZM44.53-32.67L44.53-32.67Q44.53-31.69 44.11-30.83 43.7-29.98 42.99-29.35 42.28-28.71 41.4-28.34 40.52-27.98 39.65-27.98L39.65-27.98Q38.67-27.98 37.81-28.42 36.96-28.86 36.33-29.54 35.69-30.22 35.35-31.13 35.01-32.03 35.01-32.96L35.01-32.96Q35.01-33.89 35.37-34.69 35.74-35.5 36.35-36.08 36.96-36.67 37.77-37.01 38.57-37.35 39.5-37.35L39.5-37.35Q40.43-37.35 41.33-36.99 42.23-36.62 42.94-35.96 43.65-35.3 44.09-34.45 44.53-33.59 44.53-32.67ZM46.53-24.37L46.53-24.37Q46.29-21.78 46.14-19.24 45.99-16.7 45.85-14.16L45.85-14.16Q45.65-11.18 45.19-8.25 44.72-5.32 44.14-2.39L44.14-2.39 36.67-1.61Q36.67-3.17 36.69-4.69 36.72-6.2 36.72-7.76L36.72-7.76Q36.72-11.77 36.57-15.77 36.42-19.78 36.28-23.78L36.28-23.78Q38.86-23.88 41.38-24.07 43.89-24.27 46.53-24.37ZM80.56-14.5L80.56-14.5Q80.56-13.18 80.56-11.84 80.56-10.5 80.46-9.18L80.46-9.18 69.58-8.5Q69.77-11.04 69.89-13.53 70.01-16.02 70.01-18.6L70.01-18.6Q70.01-18.85 70.01-19.43 70.01-20.02 69.97-20.68 69.92-21.34 69.87-21.92 69.82-22.51 69.77-22.75L69.77-22.75Q69.53-23.44 69.26-23.93 68.99-24.41 68.62-24.71 68.26-25 67.72-25.12 67.18-25.24 66.4-25.24L66.4-25.24Q65.82-25.24 64.91-25.15 64.01-25.05 63.08-24.85 62.15-24.66 61.32-24.37 60.49-24.07 60.15-23.68L60.15-23.68 60.05-9.28Q59.96-9.47 59.49-9.47 59.03-9.47 58.83-9.47L58.83-9.47Q57.37-9.47 55.81-9.35 54.24-9.23 52.78-9.03L52.78-9.03Q52.14-14.79 51.66-20.51 51.17-26.22 50.53-31.98L50.53-31.98Q51.51-32.03 52.49-32.06 53.46-32.08 54.44-32.08L54.44-32.08Q55.71-32.08 57-32.01 58.3-31.93 59.57-31.88L59.57-31.88 59.91-28.13Q61.27-30.37 63.62-31.88 65.96-33.4 68.65-33.4L68.65-33.4Q70.01-33.4 71.48-33.25 72.94-33.11 74.29-32.67 75.63-32.23 76.83-31.45 78.02-30.66 78.85-29.44L78.85-29.44Q79.24-28.86 79.51-27.71 79.78-26.56 79.98-25.12 80.17-23.68 80.29-22.07 80.41-20.46 80.46-18.99 80.51-17.53 80.54-16.33 80.56-15.14 80.56-14.5ZM118.99-18.12L118.99-18.12Q112.59-17.77 106.24-17.55 99.89-17.33 93.5-17.09L93.5-17.09Q93.45-16.89 93.45-16.7 93.45-16.5 93.45-16.31L93.45-16.31Q93.45-14.65 94.21-13.77 94.96-12.89 96.09-12.52 97.21-12.16 98.58-12.11 99.94-12.06 101.12-12.06L101.12-12.06Q104.39-12.06 107.66-12.28 110.93-12.5 114.25-12.74L114.25-12.74 114.64-4.98Q111.42-4.83 108.22-4.74 105.02-4.64 101.8-4.64L101.8-4.64Q101.12-4.64 99.28-4.66 97.45-4.69 95.38-4.81 93.3-4.93 91.5-5.13 89.69-5.32 89.1-5.66L89.1-5.66Q87.59-6.54 86.74-7.91 85.88-9.28 85.42-10.89 84.95-12.5 84.78-14.18 84.61-15.87 84.56-17.43L84.56-17.43Q84.51-17.68 84.54-17.94 84.56-18.21 84.56-18.46L84.56-18.46Q84.56-21.04 85.12-23.27 85.69-25.49 87.2-27.59L87.2-27.59Q88.22-29.05 90.23-30.03 92.23-31.01 94.57-31.57 96.92-32.13 99.26-32.35 101.6-32.57 103.31-32.57L103.31-32.57Q104.83-32.57 107.02-32.3 109.22-32.03 111.39-31.4 113.57-30.76 115.32-29.76 117.08-28.76 117.72-27.29L117.72-27.29Q117.81-27 117.94-26.29 118.06-25.59 118.21-24.68 118.35-23.78 118.47-22.75 118.6-21.73 118.69-20.8 118.79-19.87 118.86-19.14 118.94-18.41 118.99-18.12ZM96.04-21.14L112.35-21.68Q112.05-23.83 111.25-25.07 110.44-26.32 109.25-26.93 108.05-27.54 106.51-27.71 104.97-27.88 103.22-27.88L103.22-27.88Q102.63-27.88 101.75-27.86 100.87-27.83 99.99-27.71 99.11-27.59 98.33-27.34 97.55-27.1 97.11-26.66L97.11-26.66Q96.77-26.37 96.55-25.85 96.33-25.34 96.18-24.76 96.04-24.17 95.96-23.61 95.89-23.05 95.89-22.66L95.89-22.66Q95.89-21.88 96.04-21.14L96.04-21.14ZM149.84-33.89L149.84-33.89 149.55-27.54Q148.04-27.64 146.52-27.69 145.01-27.73 143.5-27.73L143.5-27.73Q142.86-27.73 141.69-27.71 140.52-27.69 139.08-27.64 137.64-27.59 136.12-27.49 134.61-27.39 133.34-27.29 132.07-27.2 131.19-27.05 130.31-26.9 130.12-26.76L130.12-26.76Q129.48-26.12 129.48-25.29L129.48-25.29Q129.48-24.76 129.78-24.41L129.78-24.41Q129.87-24.27 130.85-24.17 131.83-24.07 133.24-24 134.66-23.93 136.34-23.9 138.03-23.88 139.57-23.85 141.1-23.83 142.3-23.78 143.5-23.73 143.98-23.68L143.98-23.68Q145.84-23.44 146.94-22.61 148.04-21.78 148.62-20.53 149.21-19.29 149.38-17.72 149.55-16.16 149.55-14.55L149.55-14.55Q149.55-13.77 149.43-12.7 149.31-11.62 149.06-10.55 148.82-9.47 148.35-8.54 147.89-7.62 147.26-7.08L147.26-7.08Q146.52-6.49 144.89-6.1 143.25-5.71 141.37-5.47 139.49-5.22 137.73-5.13 135.98-5.03 135.05-5.03L135.05-5.03Q131.83-5.03 128.6-5.4 125.38-5.76 122.21-6.2L122.21-6.2 122.21-15.53Q125.28-14.89 128.38-14.79 131.48-14.7 134.61-14.45L134.61-14.45Q135.24-14.4 136.54-14.38 137.83-14.36 139.15-14.43 140.47-14.5 141.54-14.75 142.62-14.99 142.86-15.43L142.86-15.43Q142.96-15.58 142.96-15.77 142.96-15.97 142.96-16.11L142.96-16.11Q142.96-16.5 142.89-17.11 142.81-17.72 142.57-18.07L142.57-18.07Q142.52-18.12 142.23-18.14 141.93-18.16 141.88-18.16L141.88-18.16Q139.15-18.31 136.42-18.33 133.68-18.36 130.9-18.6L130.9-18.6Q129.78-18.7 128.63-18.82 127.48-18.95 126.36-19.19L126.36-19.19Q125.43-19.38 124.67-19.63 123.92-19.87 123.35-20.26 122.79-20.65 122.4-21.26 122.01-21.88 121.87-22.9L121.87-22.9Q121.77-23.24 121.77-23.56 121.77-23.88 121.77-24.27L121.77-24.27Q121.77-25.15 121.87-26.27 121.96-27.39 122.23-28.52 122.5-29.64 122.91-30.64 123.33-31.64 124.01-32.28L124.01-32.28Q124.45-32.71 125.58-33.01 126.7-33.3 128.16-33.52 129.63-33.74 131.29-33.89 132.95-34.03 134.49-34.11 136.03-34.18 137.27-34.2 138.52-34.23 139.15-34.23L139.15-34.23Q141.88-34.23 144.55-34.13 147.21-34.03 149.84-33.89ZM178.36-8.64L178.36-8.64 177.53-0.05Q175.96 0.05 174.4 0.12 172.84 0.2 171.28 0.2L171.28 0.2Q170.45 0.2 169.08 0.15 167.71 0.1 166.25-0.02 164.78-0.15 163.46-0.37 162.15-0.59 161.36-0.93L161.36-0.93Q160.19-1.46 159.44-2.34 158.68-3.22 158.19-4.27 157.7-5.32 157.41-6.52 157.12-7.71 156.97-8.89L156.97-8.89Q156.82-10.01 156.75-11.3 156.68-12.6 156.65-13.96 156.63-15.33 156.63-16.63 156.63-17.92 156.63-19.04L156.63-19.04 156.63-20.51 153.6-20.51Q153.8-22.71 153.82-24.85 153.84-27 154.04-29.2L154.04-29.2 156.97-29.1 156.97-36.33Q159.75-35.79 162.51-35.77 165.27-35.74 168.05-35.55L168.05-35.55 167.96-28.08 172.06-27.83Q172.06-27.49 172.08-27.2 172.11-26.9 172.11-26.56L172.11-26.56Q172.11-25.2 171.89-23.9 171.67-22.61 171.33-21.29L171.33-21.29 167.76-21.29Q167.66-19.04 167.61-16.8 167.57-14.55 167.57-12.3L167.57-12.3Q167.57-11.23 167.64-10.38 167.71-9.52 168.03-8.94 168.35-8.35 169.08-8.06 169.81-7.76 171.13-7.76L171.13-7.76Q172.94-7.76 174.74-8.01 176.55-8.25 178.36-8.64ZM206.87-20.61L206.87-20.61 206.87-19.48 197.45-19.04Q197.59-19.68 197.59-20.51L197.59-20.51Q197.59-21.73 197.25-22.09 196.91-22.46 195.74-22.46L195.74-22.46Q194.08-22.46 192.07-21.88 190.07-21.29 188.56-20.75L188.56-20.75Q188.32-18.6 188.17-16.46 188.02-14.31 188.02-12.16L188.02-12.16Q188.02-9.77 188.05-7.4 188.07-5.03 188.12-2.64L188.12-2.64 179.72-2.1Q179.48-5.22 179.23-8.33 178.99-11.43 178.79-14.55L178.79-14.55Q178.55-18.7 178.16-22.83 177.77-26.95 177.38-31.15L177.38-31.15Q180.16-30.96 182.92-30.59 185.68-30.22 188.46-29.69L188.46-29.69 188.22-25.59Q189.68-26.76 191.03-27.61 192.37-28.47 193.76-29.05 195.15-29.64 196.71-29.91 198.28-30.18 200.18-30.18L200.18-30.18Q201.45-30.18 202.82-29.91 204.18-29.64 205.16-28.66L205.16-28.66Q205.65-28.13 205.99-27.05 206.33-25.98 206.53-24.78 206.72-23.58 206.8-22.44 206.87-21.29 206.87-20.61ZM217.9-32.67L217.9-32.67Q217.9-31.69 217.49-30.83 217.07-29.98 216.36-29.35 215.66-28.71 214.78-28.34 213.9-27.98 213.02-27.98L213.02-27.98Q212.04-27.98 211.19-28.42 210.33-28.86 209.7-29.54 209.06-30.22 208.72-31.13 208.38-32.03 208.38-32.96L208.38-32.96Q208.38-33.89 208.75-34.69 209.11-35.5 209.72-36.08 210.33-36.67 211.14-37.01 211.95-37.35 212.87-37.35L212.87-37.35Q213.8-37.35 214.7-36.99 215.61-36.62 216.32-35.96 217.02-35.3 217.46-34.45 217.9-33.59 217.9-32.67ZM219.9-24.37L219.9-24.37Q219.66-21.78 219.51-19.24 219.37-16.7 219.22-14.16L219.22-14.16Q219.03-11.18 218.56-8.25 218.1-5.32 217.51-2.39L217.51-2.39 210.04-1.61Q210.04-3.17 210.07-4.69 210.09-6.2 210.09-7.76L210.09-7.76Q210.09-11.77 209.94-15.77 209.8-19.78 209.65-23.78L209.65-23.78Q212.24-23.88 214.75-24.07 217.27-24.27 219.9-24.37ZM253.94-14.5L253.94-14.5Q253.94-13.18 253.94-11.84 253.94-10.5 253.84-9.18L253.84-9.18 242.95-8.5Q243.14-11.04 243.27-13.53 243.39-16.02 243.39-18.6L243.39-18.6Q243.39-18.85 243.39-19.43 243.39-20.02 243.34-20.68 243.29-21.34 243.24-21.92 243.19-22.51 243.14-22.75L243.14-22.75Q242.9-23.44 242.63-23.93 242.36-24.41 242-24.71 241.63-25 241.09-25.12 240.56-25.24 239.77-25.24L239.77-25.24Q239.19-25.24 238.29-25.15 237.38-25.05 236.45-24.85 235.53-24.66 234.7-24.37 233.87-24.07 233.52-23.68L233.52-23.68 233.43-9.28Q233.33-9.47 232.87-9.47 232.4-9.47 232.21-9.47L232.21-9.47Q230.74-9.47 229.18-9.35 227.62-9.23 226.15-9.03L226.15-9.03Q225.52-14.79 225.03-20.51 224.54-26.22 223.91-31.98L223.91-31.98Q224.88-32.03 225.86-32.06 226.84-32.08 227.81-32.08L227.81-32.08Q229.08-32.08 230.38-32.01 231.67-31.93 232.94-31.88L232.94-31.88 233.28-28.13Q234.65-30.37 236.99-31.88 239.34-33.4 242.02-33.4L242.02-33.4Q243.39-33.4 244.85-33.25 246.32-33.11 247.66-32.67 249-32.23 250.2-31.45 251.4-30.66 252.23-29.44L252.23-29.44Q252.62-28.86 252.89-27.71 253.15-26.56 253.35-25.12 253.54-23.68 253.67-22.07 253.79-20.46 253.84-18.99 253.89-17.53 253.91-16.33 253.94-15.14 253.94-14.5ZM291.24-17.29L291.24-17.29Q291.24-15.23 291.21-13.21 291.19-11.18 291.19-9.13L291.19-9.13Q291.14-8.06 291.16-6.93 291.19-5.81 291.09-4.69L291.09-4.69Q290.94-3.61 290.8-2.42 290.65-1.22 290.31-0.05 289.97 1.12 289.41 2.15 288.84 3.17 287.92 3.91L287.92 3.91Q287.67 4.1 286.94 4.25 286.21 4.39 285.23 4.54 284.25 4.69 283.13 4.79 282.01 4.88 280.98 4.96 279.96 5.03 279.13 5.1 278.3 5.18 277.96 5.18L277.96 5.18Q274.88 5.27 271.88 5.32 268.87 5.37 265.8 5.37L265.8 5.37 262.67 5.37Q262.58 4.54 262.48 3.66 262.38 2.78 262.38 1.9L262.38 1.9Q262.38 0.93 262.18-0.12 261.99-1.17 261.75-2.2L261.75-2.2 264.97-2.15Q265.26-2.15 266.6-2.17 267.95-2.2 269.75-2.22 271.56-2.25 273.63-2.32 275.71-2.39 277.47-2.54 279.23-2.69 280.47-2.88 281.72-3.08 281.86-3.32L281.86-3.32Q282.25-3.96 282.35-4.76 282.45-5.57 282.45-6.3L282.45-6.3Q282.45-6.69 282.42-7.1 282.4-7.52 282.35-7.91L282.35-7.91Q279.62-7.71 276.93-7.57 274.25-7.42 271.46-7.42L271.46-7.42Q270.83-7.42 269.87-7.42 268.92-7.42 267.92-7.47 266.92-7.52 265.97-7.62 265.02-7.71 264.43-7.91L264.43-7.91Q263.45-8.2 262.45-8.57 261.45-8.94 260.57-9.47 259.69-10.01 259.04-10.77 258.38-11.52 258.13-12.6L258.13-12.6Q257.99-13.13 257.96-13.77 257.94-14.4 257.94-14.94L257.94-14.94Q257.94-16.31 258.08-18.41 258.23-20.51 258.6-22.68 258.96-24.85 259.57-26.78 260.18-28.71 261.11-29.69L261.11-29.69Q261.65-30.27 262.84-30.71 264.04-31.15 265.55-31.45 267.07-31.74 268.75-31.96 270.44-32.18 272.05-32.28 273.66-32.37 275-32.42 276.34-32.47 277.13-32.47L277.13-32.47Q279.86-32.47 282.59-32.32L282.59-32.32 282.94-35.45 291.14-34.23Q291.19-29.98 291.21-25.78 291.24-21.58 291.24-17.29ZM282.59-18.21L282.59-18.21Q282.59-19.78 282.55-21.26 282.5-22.75 282.4-24.32L282.4-24.32Q280.25-24.8 278.1-25.1 275.95-25.39 273.71-25.39L273.71-25.39Q273.32-25.39 272.54-25.34 271.75-25.29 270.9-25.17 270.05-25.05 269.31-24.83 268.58-24.61 268.29-24.32L268.29-24.32Q267.85-23.83 267.75-23.19 267.65-22.56 267.65-21.92L267.65-21.92Q267.65-21.39 267.78-20.29 267.9-19.19 268.09-18.02 268.29-16.85 268.58-15.82 268.87-14.79 269.17-14.4L269.17-14.4Q269.46-14.01 269.9-13.82 270.34-13.62 270.85-13.55 271.36-13.48 271.88-13.45 272.39-13.43 272.78-13.43L272.78-13.43Q273.76-13.43 275.15-13.5 276.54-13.57 277.93-13.77 279.32-13.96 280.54-14.33 281.76-14.7 282.4-15.33L282.4-15.33Q282.5-15.38 282.55-15.82 282.59-16.26 282.59-16.75 282.59-17.24 282.59-17.68 282.59-18.12 282.59-18.21Z" fill="#000000" data-fill-palette-color="primary"></path></g></svg></g></svg></g></svg></g></svg></g><g transform="matrix(1,0,0,1,122.10339811947183,0)"><svg viewBox="0 0 153.29080376105625 80.45122960470984" height="80.45122960470984" width="153.29080376105625"><g><svg xmlns="http://www.w3.org/2000/svg" xmlns:xlink="http://www.w3.org/1999/xlink" version="1.1" x="0" y="0" viewBox="5 26.381999999999998 90.001 47.23499999999999" enable-background="new 0 0 100 100" xml:space="preserve" height="80.45122960470984" width="153.29080376105625" class="icon-icon-0" data-fill-palette-color="accent" id="icon-0"><path fill="none" d="M50.482 28.475c-0.03 0.03-0.071 0.048-0.106 0.072C50.411 28.522 50.452 28.505 50.482 28.475z"></path><path fill="none" d="M50.628 28.259c-0.021 0.052-0.06 0.093-0.093 0.138C50.568 28.352 50.606 28.311 50.628 28.259z"></path><path fill="none" d="M50.553 27.618c0.025 0.037 0.058 0.069 0.075 0.111C50.61 27.688 50.578 27.655 50.553 27.618z"></path><path fill="none" d="M50.266 28.621c-0.082 0.034-0.171 0.053-0.265 0.053C50.095 28.674 50.184 28.655 50.266 28.621z"></path><path fill="none" d="M50.001 28.674c-0.375 0-0.68-0.304-0.68-0.68s0.305-0.68 0.68-0.68c-0.376 0-0.681 0.304-0.681 0.68S49.625 28.674 50.001 28.674z"></path><path fill="none" d="M50.001 27.314c0.094 0 0.183 0.019 0.265 0.053C50.184 27.333 50.095 27.314 50.001 27.314z"></path><path fill="none" d="M50.376 27.442c0.036 0.024 0.076 0.041 0.106 0.071C50.452 27.483 50.412 27.466 50.376 27.442z"></path><path fill="none" d="M54.305 70.684c0.375 0 0.678 0.305 0.68 0.68C54.984 70.988 54.68 70.684 54.305 70.684z"></path><path d="M86.63 69.109c0.108-0.227 0.177-0.478 0.177-0.746V28.107c0-0.953-0.772-1.725-1.727-1.725H14.92c-0.953 0-1.724 0.772-1.724 1.725v40.256c0 0.269 0.066 0.52 0.176 0.746H5v2.783c0 0.953 0.773 1.725 1.726 1.725h86.549c0.953 0 1.726-0.771 1.726-1.725v-2.783H86.63zM50.001 27.314c0.094 0 0.183 0.019 0.265 0.053 0.042 0.018 0.074 0.049 0.11 0.075 0.036 0.024 0.076 0.041 0.106 0.071 0.03 0.03 0.047 0.07 0.071 0.105 0.025 0.037 0.058 0.069 0.075 0.111 0.034 0.081 0.054 0.171 0.054 0.265s-0.02 0.183-0.054 0.265c-0.021 0.052-0.06 0.093-0.093 0.138-0.02 0.025-0.031 0.056-0.053 0.078-0.03 0.03-0.071 0.048-0.106 0.072-0.037 0.025-0.069 0.057-0.11 0.074-0.082 0.034-0.171 0.053-0.265 0.053-0.376 0-0.681-0.304-0.681-0.68S49.625 27.314 50.001 27.314zM16.143 29.708h67.714v36.571H16.143V29.708zM54.305 72.046h-8.608c-0.375 0-0.68-0.305-0.68-0.683 0-0.375 0.305-0.68 0.68-0.68h8.608c0.375 0 0.68 0.305 0.68 0.68C54.984 71.741 54.68 72.046 54.305 72.046z" fill="#000000" data-fill-palette-color="accent"></path><polygon points="25.039,48.313 25.039,49.536 25.039,49.537 44.878,49.537 44.878,49.536 44.878,48.313 44.878,48.312   25.039,48.312 " fill="#000000" data-fill-palette-color="accent"></polygon><rect x="36.633" y="58.613" width="3.488" height="1.225" fill="#000000" data-fill-palette-color="accent"></rect><rect x="46.552" y="48.313" width="3.488" height="1.224" fill="#000000" data-fill-palette-color="accent"></rect><rect x="39.377" y="46.296" width="3.488" height="1.224" fill="#000000" data-fill-palette-color="accent"></rect><rect x="20.692" y="31.829" width="3.489" height="1.224" fill="#000000" data-fill-palette-color="accent"></rect><rect x="20.692" y="42.131" width="3.489" height="1.224" fill="#000000" data-fill-palette-color="accent"></rect><rect x="20.692" y="46.296" width="3.489" height="1.224" fill="#000000" data-fill-palette-color="accent"></rect><rect x="20.692" y="48.313" width="3.489" height="1.224" fill="#000000" data-fill-palette-color="accent"></rect><rect x="20.692" y="44.191" width="5.832" height="1.224" fill="#000000" data-fill-palette-color="accent"></rect><rect x="25.039" y="46.296" width="12.665" height="1.224" fill="#000000" data-fill-palette-color="accent"></rect><rect x="20.692" y="50.373" width="3.489" height="1.223" fill="#000000" data-fill-palette-color="accent"></rect><rect x="20.692" y="54.494" width="3.489" height="1.223" fill="#000000" data-fill-palette-color="accent"></rect><rect x="53.637" y="50.373" width="3.488" height="1.223" fill="#000000" data-fill-palette-color="accent"></rect><rect x="25.039" y="50.373" width="27.761" height="1.223" fill="#000000" data-fill-palette-color="accent"></rect><rect x="20.692" y="52.434" width="27.792" height="1.223" fill="#000000" data-fill-palette-color="accent"></rect><rect x="25.039" y="54.494" width="23.444" height="1.223" fill="#000000" data-fill-palette-color="accent"></rect><rect x="20.692" y="56.555" width="17.012" height="1.223" fill="#000000" data-fill-palette-color="accent"></rect><rect x="20.692" y="58.613" width="14.267" height="1.225" fill="#000000" data-fill-palette-color="accent"></rect><rect x="20.692" y="60.674" width="7.134" height="1.225" fill="#000000" data-fill-palette-color="accent"></rect><rect x="20.692" y="62.736" width="5.832" height="1.223" fill="#000000" data-fill-palette-color="accent"></rect><rect x="20.692" y="33.89" width="8.694" height="1.224" fill="#000000" data-fill-palette-color="accent"></rect><rect x="20.692" y="35.95" width="11.594" height="1.224" fill="#000000" data-fill-palette-color="accent"></rect><rect x="20.692" y="38.01" width="8.694" height="1.224" fill="#000000" data-fill-palette-color="accent"></rect><rect x="20.692" y="40.071" width="8.694" height="1.224" fill="#000000" data-fill-palette-color="accent"></rect><rect x="18.798" y="31.829" width="1.058" height="1.224" fill="#000000" data-fill-palette-color="accent"></rect><rect x="18.798" y="33.89" width="1.058" height="1.224" fill="#000000" data-fill-palette-color="accent"></rect><rect x="18.798" y="35.95" width="1.058" height="1.224" fill="#000000" data-fill-palette-color="accent"></rect><rect x="18.798" y="38.01" width="1.058" height="1.224" fill="#000000" data-fill-palette-color="accent"></rect><rect x="18.798" y="40.071" width="1.058" height="1.224" fill="#000000" data-fill-palette-color="accent"></rect><rect x="18.798" y="42.131" width="1.058" height="1.224" fill="#000000" data-fill-palette-color="accent"></rect><rect x="18.798" y="44.191" width="1.058" height="1.224" fill="#000000" data-fill-palette-color="accent"></rect><rect x="18.798" y="46.252" width="1.058" height="1.224" fill="#000000" data-fill-palette-color="accent"></rect><rect x="18.798" y="48.313" width="1.058" height="1.224" fill="#000000" data-fill-palette-color="accent"></rect><rect x="18.798" y="50.373" width="1.058" height="1.223" fill="#000000" data-fill-palette-color="accent"></rect><rect x="18.798" y="52.434" width="1.058" height="1.223" fill="#000000" data-fill-palette-color="accent"></rect><rect x="18.798" y="54.494" width="1.058" height="1.223" fill="#000000" data-fill-palette-color="accent"></rect><rect x="18.798" y="56.555" width="1.058" height="1.223" fill="#000000" data-fill-palette-color="accent"></rect><rect x="18.798" y="58.613" width="1.058" height="1.225" fill="#000000" data-fill-palette-color="accent"></rect><rect x="18.798" y="60.674" width="1.058" height="1.225" fill="#000000" data-fill-palette-color="accent"></rect><rect x="18.798" y="62.736" width="1.058" height="1.223" fill="#000000" data-fill-palette-color="accent"></rect></svg></g></svg></g><g></g></svg></g><defs></defs></svg><rect width="395.5199999999999" height="170.54756088599225" fill="none" stroke="none" visibility="hidden"></rect></g></svg></g></svg>