<svg xmlns="http://www.w3.org/2000/svg" version="1.1" xmlns:xlink="http://www.w3.org/1999/xlink" xmlns:svgjs="http://svgjs.dev/svgjs" width="1000" height="232" viewBox="0 0 1000 232"><g transform="matrix(1,0,0,1,-0.6060606060606233,-0.6165335450364466)"><svg viewBox="0 0 396 92" data-background-color="#444444" preserveAspectRatio="xMidYMid meet" height="232" width="1000" xmlns="http://www.w3.org/2000/svg" xmlns:xlink="http://www.w3.org/1999/xlink"><g id="tight-bounds" transform="matrix(1,0,0,1,0.2400000000000091,0.24448744027307612)"><svg viewBox="0 0 395.52 91.51102511945383" height="91.51102511945383" width="395.52"><g><svg viewBox="0 0 665.4819602601201 153.97182539923955" height="91.51102511945383" width="395.52"><g><rect width="10.047277940251254" height="133.69478326996196" x="421.82177471269955" y="10.138521064638795" fill="#000000" opacity="1" stroke-width="0" stroke="transparent" fill-opacity="1" class="rect-qz-0" data-fill-palette-color="primary" rx="1%" id="qz-0" data-palette-color="#ffffff"></rect></g><g transform="matrix(1,0,0,1,0,21.27975300380229)"><svg viewBox="0 0 395.5199999999999 111.41231939163497" height="111.41231939163497" width="395.5199999999999"><g id="textblocktransform"><svg viewBox="0 0 395.5199999999999 111.41231939163497" height="111.41231939163497" width="395.5199999999999" id="textblock"><g><svg viewBox="0 0 395.5199999999999 111.41231939163497" height="111.41231939163497" width="395.5199999999999"><g transform="matrix(1,0,0,1,0,0)"><svg width="395.5199999999999" viewBox="2.25 -34.6 157.78 44.45" height="111.41231939163497" data-palette-color="#ffffff"><path d="M2.25 0L2.25 0 2.25-23.8Q3.25-24.25 4.6-24.63 5.95-25 7.4-25.25 8.85-25.5 10.2-25.5L10.2-25.5Q12.8-25.5 14.35-24.83 15.9-24.15 16.55-22.7 17.2-21.25 17.2-18.8L17.2-18.8 17.2-0.8Q17.2-0.4 17-0.25 16.8-0.1 15.95-0.05 15.1 0 13 0L13 0 13-17.6Q13-19.95 12.45-20.95 11.9-21.95 10.05-21.95L10.05-21.95Q9.2-21.95 8.15-21.75 7.1-21.55 6.3-21.05L6.3-21.05 6.3-0.8Q6.3-0.4 6.13-0.25 5.95-0.1 5.1-0.05 4.25 0 2.25 0ZM22.75 0L22.75 0 22.75-23.15Q22.75-24.1 23.1-24.48 23.45-24.85 24.35-24.93 25.25-25 26.9-25L26.9-25 26.9-0.8Q26.9-0.4 26.72-0.25 26.55-0.1 25.7-0.05 24.85 0 22.75 0ZM24.7-28.45L24.7-28.45Q23.75-28.5 23.2-29.18 22.65-29.85 22.65-31.6L22.65-31.6Q22.7-32.95 23.25-33.77 23.8-34.6 25-34.6L25-34.6Q26.15-34.6 26.6-33.95 27.05-33.3 27-31.7L27-31.7Q27-30.2 26.42-29.33 25.85-28.45 24.7-28.45ZM32.09 0L32.09 0 32.09-23.8Q33.09-24.25 34.45-24.63 35.8-25 37.24-25.25 38.7-25.5 40.05-25.5L40.05-25.5Q42.64-25.5 44.2-24.83 45.74-24.15 46.39-22.7 47.05-21.25 47.05-18.8L47.05-18.8 47.05-0.8Q47.05-0.4 46.84-0.25 46.64-0.1 45.8-0.05 44.95 0 42.84 0L42.84 0 42.84-17.6Q42.84-19.95 42.3-20.95 41.74-21.95 39.89-21.95L39.89-21.95Q39.05-21.95 37.99-21.75 36.95-21.55 36.14-21.05L36.14-21.05 36.14-0.8Q36.14-0.4 35.97-0.25 35.8-0.1 34.95-0.05 34.09 0 32.09 0ZM58.89 0.5L58.89 0.5Q57.19 0.5 55.72 0.03 54.24-0.45 53.17-1.7 52.09-2.95 51.52-5.25 50.94-7.55 50.94-11.2L50.94-11.2Q50.94-15.9 51.69-18.75 52.44-21.6 53.69-23.05 54.94-24.5 56.54-25 58.14-25.5 59.79-25.5L59.79-25.5Q62.94-25.5 64.54-23.5 66.14-21.5 66.14-17.45L66.14-17.45Q66.14-15.8 66.02-14.05 65.89-12.3 65.54-10.95L65.54-10.95Q63.84-10.6 61.74-10.45 59.64-10.3 57.74-10.23 55.84-10.15 54.62-10.15 53.39-10.15 53.39-10.15L53.39-10.15 53.44-13.45Q53.44-13.45 54.39-13.43 55.34-13.4 56.72-13.43 58.09-13.45 59.52-13.58 60.94-13.7 61.94-14L61.94-14Q62.09-14.7 62.14-15.5 62.19-16.3 62.19-17L62.19-17Q62.14-19.7 61.57-20.83 60.99-21.95 59.34-21.95L59.34-21.95Q58.49-21.95 57.72-21.48 56.94-21 56.34-19.83 55.74-18.65 55.42-16.6 55.09-14.55 55.09-11.35L55.09-11.35Q55.09-9 55.37-7.45 55.64-5.9 56.22-5.05 56.79-4.2 57.67-3.83 58.54-3.45 59.79-3.45L59.79-3.45Q61.29-3.45 62.77-3.85 64.24-4.25 65.44-5L65.44-5Q65.69-4.4 65.77-3.63 65.84-2.85 65.84-2.25L65.84-2.25Q65.84-1.5 64.89-0.85 63.94-0.2 62.37 0.15 60.79 0.5 58.89 0.5ZM75.04 0.5L75.04 0.5Q72.39 0.5 70.66-0.13 68.94-0.75 68.94-2.05L68.94-2.05Q68.94-2.5 69.09-3.13 69.24-3.75 69.64-4.4L69.64-4.4Q70.74-3.75 71.97-3.45 73.19-3.15 74.64-3.15L74.64-3.15Q76.54-3.15 77.61-3.93 78.69-4.7 78.69-6.25L78.69-6.25Q78.69-7.25 78.27-8.2 77.84-9.15 76.69-10.15L76.69-10.15 71.84-14.3Q70.14-15.7 69.56-17.03 68.99-18.35 68.99-19.6L68.99-19.6Q68.99-21.35 69.86-22.68 70.74-24 72.56-24.75 74.39-25.5 77.14-25.5L77.14-25.5Q79.74-25.5 81.06-25 82.39-24.5 82.91-23.88 83.44-23.25 83.44-22.7L83.44-22.7Q83.44-21.65 82.54-20.65L82.54-20.65Q81.44-21.35 80.24-21.65 79.04-21.95 77.64-21.95L77.64-21.95Q75.84-21.95 74.77-21.33 73.69-20.7 73.69-19.55L73.69-19.55Q73.69-18.9 74.06-18.2 74.44-17.5 75.69-16.45L75.69-16.45 80.34-12.7Q81.99-11.15 82.64-9.75 83.29-8.35 83.29-6.45L83.29-6.45Q83.29-3.15 81.09-1.33 78.89 0.5 75.04 0.5ZM93.79 0.5L93.79 0.5Q91.69 0.5 90.66-0.43 89.64-1.35 89.34-3.03 89.04-4.7 89.04-6.95L89.04-6.95 89.04-21.5 85.64-21.5Q85.64-23.1 85.66-23.83 85.69-24.55 85.89-24.78 86.09-25 86.49-25L86.49-25 89.04-25 89.04-32.6Q89.04-33.35 89.36-33.63 89.69-33.9 90.56-33.95 91.44-34 93.09-34L93.09-34 93.09-25 98.19-25Q98.19-23.45 98.16-22.7 98.14-21.95 97.96-21.73 97.79-21.5 97.39-21.5L97.39-21.5 93.09-21.5 93.09-6.95Q93.09-5.9 93.16-4.98 93.24-4.05 93.61-3.53 93.99-3 94.89-3L94.89-3Q95.74-3 96.39-3.18 97.04-3.35 97.79-3.75L97.79-3.75Q97.89-3.35 97.99-2.85 98.09-2.35 98.09-1.7L98.09-1.7Q98.09-0.8 97.41-0.33 96.74 0.15 95.76 0.33 94.79 0.5 93.79 0.5ZM101.48 0L101.48 0 101.48-23.25Q102.94-24.3 104.69-24.9 106.44-25.5 108.28-25.5L108.28-25.5Q110.23-25.5 111.01-24.98 111.78-24.45 111.78-23.4L111.78-23.4Q111.78-23 111.69-22.33 111.59-21.65 111.34-21L111.34-21Q110.78-21.3 110.19-21.45 109.59-21.6 108.94-21.6L108.94-21.6Q108.08-21.6 107.21-21.33 106.33-21.05 105.64-20.5L105.64-20.5 105.58-0.8Q105.58-0.4 105.41-0.25 105.23-0.1 104.39-0.05 103.53 0 101.48 0ZM114.68 0L114.68 0 114.68-23.15Q114.68-24.1 115.03-24.48 115.38-24.85 116.28-24.93 117.18-25 118.83-25L118.83-25 118.83-0.8Q118.83-0.4 118.66-0.25 118.48-0.1 117.63-0.05 116.78 0 114.68 0ZM116.63-28.45L116.63-28.45Q115.68-28.5 115.13-29.18 114.58-29.85 114.58-31.6L114.58-31.6Q114.63-32.95 115.18-33.77 115.73-34.6 116.93-34.6L116.93-34.6Q118.08-34.6 118.53-33.95 118.98-33.3 118.93-31.7L118.93-31.7Q118.93-30.2 118.36-29.33 117.78-28.45 116.63-28.45ZM124.03 0L124.03 0 124.03-23.8Q125.03-24.25 126.38-24.63 127.73-25 129.18-25.25 130.63-25.5 131.98-25.5L131.98-25.5Q134.58-25.5 136.13-24.83 137.68-24.15 138.33-22.7 138.98-21.25 138.98-18.8L138.98-18.8 138.98-0.8Q138.98-0.4 138.78-0.25 138.58-0.1 137.73-0.05 136.88 0 134.78 0L134.78 0 134.78-17.6Q134.78-19.95 134.23-20.95 133.68-21.95 131.83-21.95L131.83-21.95Q130.98-21.95 129.93-21.75 128.88-21.55 128.08-21.05L128.08-21.05 128.08-0.8Q128.08-0.4 127.91-0.25 127.73-0.1 126.88-0.05 126.03 0 124.03 0ZM150.03 9.85L150.03 9.85Q146.68 9.85 144.93 9 143.18 8.15 142.58 6.9 141.98 5.65 141.98 4.4L141.98 4.4Q141.98 2.65 142.98 1.18 143.98-0.3 145.5-1.43 147.03-2.55 148.73-3.05L148.73-3.05 150.23-1.85Q149.28-1.45 148.33-0.6 147.38 0.25 146.78 1.3 146.18 2.35 146.18 3.45L146.18 3.45Q146.18 4.2 146.5 4.83 146.83 5.45 147.75 5.78 148.68 6.1 150.38 6.1L150.38 6.1Q153.08 6.1 154.28 4.83 155.48 3.55 155.48 2.25L155.48 2.25Q155.48 1.1 154.98 0.48 154.48-0.15 153.25-0.48 152.03-0.8 149.83-0.95L149.83-0.95Q147.73-1.15 146.13-1.55 144.53-1.95 143.63-2.65 142.73-3.35 142.73-4.35L142.73-4.35Q142.78-5.15 143.28-6.03 143.78-6.9 144.7-7.83 145.63-8.75 146.88-9.6L146.88-9.6 149.38-8.75Q149.08-8.55 148.53-8.03 147.98-7.5 147.53-6.88 147.08-6.25 147.08-5.7L147.08-5.7Q147.08-5.05 148.78-4.75 150.48-4.45 152.98-4.15L152.98-4.15Q154.93-3.85 156.43-3.23 157.93-2.6 158.75-1.45 159.58-0.3 159.58 1.7L159.58 1.7Q159.58 3.85 158.58 5.73 157.58 7.6 155.48 8.72 153.38 9.85 150.03 9.85ZM150.63-7.7L150.63-7.7Q147.63-7.7 145.93-8.85 144.23-10 143.53-11.98 142.83-13.95 142.83-16.35L142.83-16.35Q142.83-19.65 143.88-21.68 144.93-23.7 146.83-24.6 148.73-25.5 151.18-25.5L151.18-25.5Q151.73-25.5 152.55-25.35 153.38-25.2 154.08-24.95L154.08-24.95 154.93-23.15Q156.68-22.45 157.7-20.8 158.73-19.15 158.73-16.45L158.73-16.45Q158.73-13.8 157.9-11.85 157.08-9.9 155.3-8.8 153.53-7.7 150.63-7.7ZM150.83-10.8L150.83-10.8Q152.18-10.8 153-11.55 153.83-12.3 154.23-13.78 154.63-15.25 154.63-17.4L154.63-17.4Q154.63-20.15 153.73-21.33 152.83-22.5 150.98-22.5L150.98-22.5Q149.93-22.5 149.03-21.93 148.13-21.35 147.63-20.03 147.13-18.7 147.13-16.45L147.13-16.45Q147.13-14.7 147.4-13.43 147.68-12.15 148.48-11.48 149.28-10.8 150.83-10.8ZM158.63-21.6L158.63-21.6Q157.88-21.6 156.83-21.88 155.78-22.15 154.73-22.48 153.68-22.8 153-23.05 152.33-23.3 152.33-23.3L152.33-23.3 151.88-25.1 159.63-25.1Q159.78-24.85 159.9-24.38 160.03-23.9 160.03-23.2L160.03-23.2Q160.03-22.35 159.65-21.98 159.28-21.6 158.63-21.6Z" opacity="1" transform="matrix(1,0,0,1,0,0)" fill="#000000" class="wordmark-text-0" data-fill-palette-color="primary" id="text-0"></path></svg></g></svg></g></svg></g></svg></g><g transform="matrix(1,0,0,1,458.17082736565044,0)"><svg viewBox="0 0 207.31113289446964 153.97182539923955" height="153.97182539923955" width="207.31113289446964"><g><svg xmlns="http://www.w3.org/2000/svg" xmlns:xlink="http://www.w3.org/1999/xlink" version="1.1" x="0" y="0" viewBox="7.5 18.435 85.001 63.131" enable-background="new 0 0 100 100" xml:space="preserve" height="153.97182539923955" width="207.31113289446964" class="icon-icon-0" data-fill-palette-color="accent" id="icon-0"><g fill="#00d1cd" data-fill-palette-color="accent"><path d="M89.405 18.435H10.595c-1.706 0-3.095 1.389-3.095 3.095v56.941c0 1.706 1.389 3.095 3.095 3.095h78.811c1.707 0 3.095-1.389 3.095-3.095V77.14 32.027 21.529C92.5 19.823 91.112 18.435 89.405 18.435zM10.595 19.673h78.811c1.023 0 1.857 0.833 1.857 1.856v9.075c-0.068-0.01-0.136-0.021-0.207-0.021H8.951c-0.073 0-0.143 0.011-0.213 0.021v-9.076C8.738 20.506 9.571 19.673 10.595 19.673zM91.263 77.14c0 0.114-0.093 0.206-0.207 0.206H8.951c-0.113 0-0.206-0.092-0.206-0.206V32.027c0-0.113 0.093-0.206 0.206-0.206h82.104c0.114 0 0.207 0.093 0.207 0.206V77.14zM89.405 80.327H10.595c-0.992 0-1.798-0.784-1.848-1.764 0.067 0.01 0.135 0.021 0.204 0.021h82.104c0.068 0 0.133-0.011 0.197-0.02C91.202 79.544 90.396 80.327 89.405 80.327z" fill="#000000" data-fill-palette-color="accent"></path><path d="M28.178 27.787c1.45 0 2.63-1.18 2.63-2.63 0-1.451-1.18-2.631-2.63-2.631s-2.631 1.18-2.631 2.631C25.547 26.607 26.728 27.787 28.178 27.787zM28.178 23.765c0.768 0 1.393 0.624 1.393 1.393 0 0.768-0.625 1.393-1.393 1.393-0.769 0-1.393-0.625-1.393-1.393C26.785 24.389 27.409 23.765 28.178 23.765z" fill="#000000" data-fill-palette-color="accent"></path><path d="M21.458 27.787c1.451 0 2.631-1.18 2.631-2.63 0-1.451-1.18-2.631-2.631-2.631-1.45 0-2.63 1.18-2.63 2.631C18.828 26.607 20.008 27.787 21.458 27.787zM21.458 23.765c0.769 0 1.393 0.624 1.393 1.393 0 0.768-0.624 1.393-1.393 1.393-0.768 0-1.393-0.625-1.393-1.393C20.065 24.389 20.69 23.765 21.458 23.765z" fill="#000000" data-fill-palette-color="accent"></path><path d="M14.738 27.787c1.451 0 2.631-1.18 2.631-2.63 0-1.451-1.18-2.631-2.631-2.631-1.45 0-2.63 1.18-2.63 2.631C12.108 26.607 13.288 27.787 14.738 27.787zM14.738 23.765c0.769 0 1.393 0.624 1.393 1.393 0 0.768-0.624 1.393-1.393 1.393-0.768 0-1.393-0.625-1.393-1.393C13.346 24.389 13.971 23.765 14.738 23.765z" fill="#000000" data-fill-palette-color="accent"></path></g><path d="M26.598 65.915c-0.624 0-1.395-0.429-2.289-1.276-1.605-1.519-2.16-2.371-1.2-3.405l8.79-8.811-8.774-8.782c-0.676-0.676-0.57-1.195-0.401-1.57 0.242-0.544 0.814-1.117 1.479-1.781 0.829-0.829 1.542-1.542 2.241-1.542 0.342 0 0.679 0.172 1.033 0.526l11.769 11.755c0.311 0.254 0.521 0.659 0.564 1.134 0.048 0.537-0.134 1.152-0.452 1.533L27.53 65.514C27.243 65.787 26.941 65.915 26.598 65.915zM23.846 42.57c-0.009 0 0.027 0.068 0.154 0.194l9.211 9.221c0.241 0.242 0.241 0.633 0 0.875L24 62.093c-0.093 0.1-0.125 0.147-0.133 0.166 0.012 0.047 0.125 0.377 1.292 1.48 0.979 0.927 1.42 0.938 1.438 0.938v0.619l0.01-0.62c-0.001 0.001-0.001 0.001-0.001 0.001-0.003 0 0.02-0.012 0.061-0.05l11.777-11.767c0.061-0.077 0.151-0.357 0.131-0.589-0.013-0.145-0.063-0.246-0.162-0.328L26.601 40.148c-0.144-0.143-0.215-0.171-0.215-0.171-0.182 0.06-0.886 0.764-1.307 1.184-0.531 0.532-1.077 1.078-1.227 1.413C23.85 42.571 23.848 42.57 23.846 42.57z" fill="#000000" data-fill-palette-color="accent"></path><path d="M55.834 71.436H40.498c-1.594 0-1.92-1.234-1.92-3.088s0.326-3.088 1.92-3.088h15.336c1.503 0 1.787 1.085 1.787 3.088C57.621 70.396 57.346 71.436 55.834 71.436zM40.498 66.497c-0.366 0-0.683 0-0.683 1.851s0.316 1.851 0.683 1.851h15.336c0.354 0 0.55 0 0.55-1.851s-0.219-1.851-0.55-1.851H40.498z" fill="#000000" data-fill-palette-color="accent"></path></svg></g></svg></g></svg></g><defs></defs></svg><rect width="395.52" height="91.51102511945383" fill="none" stroke="none" visibility="hidden"></rect></g></svg></g></svg>